HIERARCHY
ROOT Hips
{
	OFFSET 0.053599 88.859886 3.107447
	CHANNELS 6 Xposition Yposition Zposition Zrotation Yrotation Xrotation 
	JOINT Spine
	{
		OFFSET -0.000000 8.814246 -2.080107
		CHANNELS 3 Zrotation Yrotation Xrotation
		JOINT Spine1
		{
			OFFSET 0.000000 8.844141 0.000000
			CHANNELS 3 Zrotation Yrotation Xrotation
			JOINT Spine2
			{
				OFFSET -0.000000 11.682268 0.000000
				CHANNELS 3 Zrotation Yrotation Xrotation
				JOINT Spine3
				{
					OFFSET 0.000000 11.746700 0.000000
					CHANNELS 3 Zrotation Yrotation Xrotation
					JOINT Neck
					{
						OFFSET -0.000000 17.658264 -0.000000
						CHANNELS 3 Zrotation Yrotation Xrotation
						JOINT Neck1
						{
							OFFSET -0.000000 5.101515 -0.000000
							CHANNELS 3 Zrotation Yrotation Xrotation
							JOINT Head
							{
								OFFSET 0.000000 5.101515 0.000000
								CHANNELS 3 Zrotation Yrotation Xrotation
								JOINT HeadEnd
								{
									OFFSET 0.000000 11.655085 0.000000
									CHANNELS 3 Zrotation Yrotation Xrotation
									End Site
									{
										OFFSET 0.000000 0.000000 0.000000
									}
								}
							}
						}
					}
					JOINT RightShoulder
					{
						OFFSET -2.625389 11.175210 0.000000
						CHANNELS 3 Zrotation Yrotation Xrotation
						JOINT RightArm
						{
							OFFSET -0.000000 10.434715 -0.000000
							CHANNELS 3 Zrotation Yrotation Xrotation
							JOINT RightForeArm
							{
								OFFSET -0.000000 29.628420 0.000000
								CHANNELS 3 Zrotation Yrotation Xrotation
								JOINT RightHand
								{
									OFFSET -0.000000 22.857611 0.000000
									CHANNELS 3 Zrotation Yrotation Xrotation
									JOINT RightHandThumb1
									{
										OFFSET -2.867323 3.959563 2.944291
										CHANNELS 3 Zrotation Yrotation Xrotation
										JOINT RightHandThumb2
										{
											OFFSET 0.000000 3.350399 0.000000
											CHANNELS 3 Zrotation Yrotation Xrotation
											JOINT RightHandThumb3
											{
												OFFSET 0.000000 3.756509 -0.000000
												CHANNELS 3 Zrotation Yrotation Xrotation
												JOINT RightHandThumb4
												{
													OFFSET 0.000000 3.147345 0.000000
													CHANNELS 3 Zrotation Yrotation Xrotation
													End Site
													{
														OFFSET 0.000000 0.000000 0.000000
													}
												}
											}
										}
									}
									JOINT RightHandIndex1
									{
										OFFSET -0.086752 10.030893 2.345280
										CHANNELS 3 Zrotation Yrotation Xrotation
										JOINT RightHandIndex2
										{
											OFFSET -0.000000 4.061090 0.000000
											CHANNELS 3 Zrotation Yrotation Xrotation
											JOINT RightHandIndex3
											{
												OFFSET -0.000000 3.248873 0.000000
												CHANNELS 3 Zrotation Yrotation Xrotation
												JOINT RightHandIndex4
												{
													OFFSET 0.000000 2.639709 -0.000000
													CHANNELS 3 Zrotation Yrotation Xrotation
													End Site
													{
														OFFSET 0.000000 0.000000 0.000000
													}
												}
											}
										}
									}
									JOINT RightHandMiddle1
									{
										OFFSET 0.104102 9.502952 0.006768
										CHANNELS 3 Zrotation Yrotation Xrotation
										JOINT RightHandMiddle2
										{
											OFFSET 0.000000 4.568727 0.000000
											CHANNELS 3 Zrotation Yrotation Xrotation
											JOINT RightHandMiddle3
											{
												OFFSET 0.000000 3.654981 -0.000000
												CHANNELS 3 Zrotation Yrotation Xrotation
												JOINT RightHandMiddle4
												{
													OFFSET -0.000000 2.741236 -0.000000
													CHANNELS 3 Zrotation Yrotation Xrotation
													End Site
													{
														OFFSET 0.000000 0.000000 0.000000
													}
												}
											}
										}
									}
									JOINT RightHandRing1
									{
										OFFSET 0.086752 8.921708 -2.267442
										CHANNELS 3 Zrotation Yrotation Xrotation
										JOINT RightHandRing2
										{
											OFFSET -0.000000 4.061090 0.000000
											CHANNELS 3 Zrotation Yrotation Xrotation
											JOINT RightHandRing3
											{
												OFFSET 0.000000 3.654981 -0.000000
												CHANNELS 3 Zrotation Yrotation Xrotation
												JOINT RightHandRing4
												{
													OFFSET 0.000000 2.741236 -0.000000
													CHANNELS 3 Zrotation Yrotation Xrotation
													End Site
													{
														OFFSET 0.000000 0.000000 0.000000
													}
												}
											}
										}
									}
									JOINT RightHandPinky1
									{
										OFFSET -0.173504 7.976997 -4.467199
										CHANNELS 3 Zrotation Yrotation Xrotation
										JOINT RightHandPinky2
										{
											OFFSET 0.000000 3.350399 -0.000000
											CHANNELS 3 Zrotation Yrotation Xrotation
											JOINT RightHandPinky3
											{
												OFFSET -0.000000 2.842763 0.000000
												CHANNELS 3 Zrotation Yrotation Xrotation
												JOINT RightHandPinky4
												{
													OFFSET -0.000000 2.639709 0.000000
													CHANNELS 3 Zrotation Yrotation Xrotation
													End Site
													{
														OFFSET 0.000000 0.000000 0.000000
													}
												}
											}
										}
									}
									JOINT RightForeArmEnd
									{
										OFFSET 0.000000 0.000000 0.000000
										CHANNELS 3 Zrotation Yrotation Xrotation
										End Site
										{
											OFFSET 0.000000 0.000000 0.000000
										}
									}
								}
								JOINT RightArmEnd
								{
									OFFSET 0.000000 0.000000 0.000000
									CHANNELS 3 Zrotation Yrotation Xrotation
									End Site
									{
										OFFSET 0.000000 0.000000 0.000000
									}
								}
							}
						}
					}
					JOINT LeftShoulder
					{
						OFFSET 2.625389 11.175210 0.000000
						CHANNELS 3 Zrotation Yrotation Xrotation
						JOINT LeftArm
						{
							OFFSET 0.000000 10.813635 -0.000000
							CHANNELS 3 Zrotation Yrotation Xrotation
							JOINT LeftForeArm
							{
								OFFSET 0.000000 28.724781 0.000000
								CHANNELS 3 Zrotation Yrotation Xrotation
								JOINT LeftHand
								{
									OFFSET 0.644384 25.716167 -0.328871
									CHANNELS 3 Zrotation Yrotation Xrotation
									JOINT LeftHandThumb1
									{
										OFFSET 2.867323 3.959563 2.944291
										CHANNELS 3 Zrotation Yrotation Xrotation
										JOINT LeftHandThumb2
										{
											OFFSET 0.000000 3.350399 0.000000
											CHANNELS 3 Zrotation Yrotation Xrotation
											JOINT LeftHandThumb3
											{
												OFFSET -0.000000 3.756509 0.000000
												CHANNELS 3 Zrotation Yrotation Xrotation
												JOINT LeftHandThumb4
												{
													OFFSET -0.000000 3.100000 0.000000
													CHANNELS 3 Zrotation Yrotation Xrotation
													End Site
													{
														OFFSET 0.000000 0.000000 0.000000
													}
												}
											}
										}
									}
									JOINT LeftHandIndex1
									{
										OFFSET 0.086752 10.030893 2.345280
										CHANNELS 3 Zrotation Yrotation Xrotation
										JOINT LeftHandIndex2
										{
											OFFSET -0.000000 4.061090 -0.000000
											CHANNELS 3 Zrotation Yrotation Xrotation
											JOINT LeftHandIndex3
											{
												OFFSET 0.000000 3.248873 -0.000000
												CHANNELS 3 Zrotation Yrotation Xrotation
												JOINT LeftHandIndex4
												{
													OFFSET 0.000000 2.639709 -0.000000
													CHANNELS 3 Zrotation Yrotation Xrotation
													End Site
													{
														OFFSET 0.000000 0.000000 0.000000
													}
												}
											}
										}
									}
									JOINT LeftHandMiddle1
									{
										OFFSET -0.104102 9.502952 0.006768
										CHANNELS 3 Zrotation Yrotation Xrotation
										JOINT LeftHandMiddle2
										{
											OFFSET -0.000000 4.568727 -0.000000
											CHANNELS 3 Zrotation Yrotation Xrotation
											JOINT LeftHandMiddle3
											{
												OFFSET 0.000000 3.654981 0.000000
												CHANNELS 3 Zrotation Yrotation Xrotation
												JOINT LeftHandMiddle4
												{
													OFFSET 0.000000 2.741236 -0.000000
													CHANNELS 3 Zrotation Yrotation Xrotation
													End Site
													{
														OFFSET 0.000000 0.000000 0.000000
													}
												}
											}
										}
									}
									JOINT LeftHandRing1
									{
										OFFSET -0.086752 8.921708 -2.267442
										CHANNELS 3 Zrotation Yrotation Xrotation
										JOINT LeftHandRing2
										{
											OFFSET 0.000000 4.061090 0.000000
											CHANNELS 3 Zrotation Yrotation Xrotation
											JOINT LeftHandRing3
											{
												OFFSET 0.000000 3.654981 0.000000
												CHANNELS 3 Zrotation Yrotation Xrotation
												JOINT LeftHandRing4
												{
													OFFSET 0.000000 2.741236 0.000000
													CHANNELS 3 Zrotation Yrotation Xrotation
													End Site
													{
														OFFSET 0.000000 0.000000 0.000000
													}
												}
											}
										}
									}
									JOINT LeftHandPinky1
									{
										OFFSET 0.173504 7.976997 -4.467199
										CHANNELS 3 Zrotation Yrotation Xrotation
										JOINT LeftHandPinky2
										{
											OFFSET -0.000000 3.350399 -0.000000
											CHANNELS 3 Zrotation Yrotation Xrotation
											JOINT LeftHandPinky3
											{
												OFFSET 0.000000 2.842763 0.000000
												CHANNELS 3 Zrotation Yrotation Xrotation
												JOINT LeftHandPinky4
												{
													OFFSET -0.000000 2.639709 -0.000000
													CHANNELS 3 Zrotation Yrotation Xrotation
													End Site
													{
														OFFSET 0.000000 0.000000 0.000000
													}
												}
											}
										}
									}
									JOINT LeftForeArmEnd
									{
										OFFSET 0.000000 0.000000 0.000000
										CHANNELS 3 Zrotation Yrotation Xrotation
										End Site
										{
											OFFSET 0.000000 0.000000 0.000000
										}
									}
								}
								JOINT LeftArmEnd
								{
									OFFSET 0.000000 0.000000 0.000000
									CHANNELS 3 Zrotation Yrotation Xrotation
									End Site
									{
										OFFSET 0.000000 0.000000 0.000000
									}
								}
							}
						}
					}
				}
			}
		}
	}
	JOINT RightUpLeg
	{
		OFFSET -11.289943 0.000000 0.000000
		CHANNELS 3 Zrotation Yrotation Xrotation
		JOINT RightLeg
		{
			OFFSET 0.000000 -38.200325 0.000000
			CHANNELS 3 Zrotation Yrotation Xrotation
			JOINT RightFoot
			{
				OFFSET -0.000000 -39.900856 -0.000000
				CHANNELS 3 Zrotation Yrotation Xrotation
				JOINT RightToeBase
				{
					OFFSET 0.000000 0.000000 15.261641
					CHANNELS 3 Zrotation Yrotation Xrotation
					JOINT RightToeBaseEnd
					{
						OFFSET 0.000000 0.000000 7.370709
						CHANNELS 3 Zrotation Yrotation Xrotation
						End Site
						{
							OFFSET 0.000000 0.000000 0.000000
						}
					}
				}
				JOINT RightLegEnd
				{
					OFFSET 0.000000 0.000000 0.000000
					CHANNELS 3 Zrotation Yrotation Xrotation
					End Site
					{
						OFFSET 0.000000 0.000000 0.000000
					}
				}
			}
			JOINT RightUpLegEnd
			{
				OFFSET 0.000000 0.000000 0.000000
				CHANNELS 3 Zrotation Yrotation Xrotation
				End Site
				{
					OFFSET 0.000000 0.000000 0.000000
				}
			}
		}
	}
	JOINT LeftUpLeg
	{
		OFFSET 11.315661 -0.000000 0.000000
		CHANNELS 3 Zrotation Yrotation Xrotation
		JOINT LeftLeg
		{
			OFFSET -0.000000 -38.200325 -0.000000
			CHANNELS 3 Zrotation Yrotation Xrotation
			JOINT LeftFoot
			{
				OFFSET 0.000000 -39.900856 -0.000000
				CHANNELS 3 Zrotation Yrotation Xrotation
				JOINT LeftToeBase
				{
					OFFSET -0.000000 -0.000000 15.261641
					CHANNELS 3 Zrotation Yrotation Xrotation
					JOINT LeftToeBaseEnd
					{
						OFFSET 0.000000 -0.000000 7.539996
						CHANNELS 3 Zrotation Yrotation Xrotation
						End Site
						{
							OFFSET 0.000000 0.000000 0.000000
						}
					}
				}
				JOINT LeftLegEnd
				{
					OFFSET 0.000000 0.000000 0.000000
					CHANNELS 3 Zrotation Yrotation Xrotation
					End Site
					{
						OFFSET 0.000000 0.000000 0.000000
					}
				}
			}
			JOINT LeftUpLegEnd
			{
				OFFSET 0.000000 0.000000 0.000000
				CHANNELS 3 Zrotation Yrotation Xrotation
				End Site
				{
					OFFSET 0.000000 0.000000 0.000000
				}
			}
		}
	}
}
MOTION
Frames: 5
Frame Time: 0.016667
0.053599 88.859886 3.107447 0.490481 0.055862 -6.497332 0.023754 -0.000539 5.886370 -1.012250 0.067046 0.861970 0.478071 -2.416792 3.829567 0.155030 -0.780500 1.929224 2.330515 0.848112 5.016849 0.371683 2.117863 -3.221864 -0.714533 -0.852149 -18.222401 0.000000 0.000000 0.000000 92.418694 -0.394880 9.707912 65.456573 -33.431271 5.091406 -0.130291 12.440493 22.353239 6.882370 13.743960 -6.458578 19.861429 30.097643 62.040974 -8.462701 -12.164348 -20.450144 -6.325801 -8.139122 -14.332924 0.000000 0.000000 0.000000 12.621688 -10.712396 0.231899 8.905269 0.376633 1.323778 8.902945 -0.111869 1.243825 0.000000 0.000000 0.000000 11.194713 -5.446730 -1.239449 7.889823 0.455857 0.481039 7.889222 -0.037052 0.412494 0.000000 0.000000 0.000000 10.912717 2.564455 -1.535874 7.825817 -0.947299 -0.611652 7.824722 0.070320 -0.477096 0.000000 0.000000 0.000000 9.631022 11.185607 -2.805182 7.161172 -1.900893 -1.652070 7.157181 0.085565 -1.400512 0.000000 0.000000 0.000000 0.000000 0.000000 0.000000 0.000000 0.000000 0.000000 -90.370071 0.051974 5.208683 -71.842018 19.306828 -7.574249 -0.664994 -8.642401 40.885647 -0.139946 -25.486511 -15.477552 -20.250540 -29.996990 61.691063 8.807010 12.918287 -21.553112 6.618044 8.635277 -15.110494 0.000000 0.000000 0.000000 -16.168392 -5.636370 -1.918335 -11.569428 0.324957 -1.715407 -11.569072 -0.164917 -1.615128 0.000000 0.000000 0.000000 -15.643335 -0.758781 -1.694552 -11.169063 0.440303 -0.678956 -11.168735 -0.058746 -0.582722 0.000000 0.000000 0.000000 -18.003109 7.607869 -1.025503 -12.703986 -0.874371 0.992852 -12.702737 0.099213 0.772902 0.000000 0.000000 0.000000 -18.852142 16.262062 -0.245862 -13.102126 -1.657223 2.980032 -13.096694 0.281077 2.526406 0.000000 0.000000 0.000000 0.000000 0.000000 0.000000 0.000000 0.000000 0.000000 -1.045058 -10.518975 11.869204 -0.078405 -0.635030 3.758801 -2.197730 -7.901679 18.681496 -0.890004 0.828132 -18.870453 0.000000 0.000000 0.000000 0.000000 0.000000 0.000000 0.000000 0.000000 0.000000 -1.784023 -6.543907 7.474547 0.053202 0.398207 7.545935 3.843466 -1.785134 17.966772 0.194973 -0.390531 -20.817129 0.000000 0.000000 0.000000 0.000000 0.000000 0.000000 0.000000 0.000000 0.000000 
0.118227 88.903870 2.906948 -0.264770 -0.295702 -7.318843 1.301014 -0.187544 6.645919 -0.990655 0.125831 2.684718 0.768781 -1.627472 1.547350 -0.889092 -0.177492 3.054767 1.362958 2.290880 3.145818 0.326509 2.948342 -3.814453 -1.031885 -0.550373 -18.420008 0.000000 0.000000 0.000000 93.024734 -0.455464 9.586948 65.067558 -32.138321 3.958438 -0.123439 13.009809 23.148378 6.816578 13.294886 -6.810541 19.885866 30.093061 62.066601 -8.437058 -12.098147 -20.462891 -6.298101 -8.108221 -14.294591 0.000000 0.000000 0.000000 12.055676 -10.749689 -0.322894 8.992692 0.324661 1.346053 8.780988 -0.115891 1.279240 0.000000 0.000000 0.000000 10.879157 -5.356472 -1.119668 7.652408 0.418209 0.525542 8.026491 -0.056213 0.449711 0.000000 0.000000 0.000000 10.319591 2.575143 -0.841801 7.470532 -0.882795 -0.862382 7.502554 0.072080 -0.634113 0.000000 0.000000 0.000000 9.602839 11.049340 -1.771451 7.161534 -1.632036 -2.458387 6.743900 0.291369 -2.072959 0.000000 0.000000 0.000000 0.000000 0.000000 0.000000 0.000000 0.000000 0.000000 -89.916389 0.121649 6.022829 -71.671768 19.635759 -6.558417 -1.223926 -9.001598 40.480957 1.988604 -23.276186 -16.034168 -20.248125 -29.970118 61.611404 8.872540 12.955737 -21.683863 6.645534 8.671599 -15.158595 0.000000 0.000000 0.000000 -17.195730 -5.504646 -0.209043 -11.018574 0.285478 -1.413465 -11.133522 -0.176732 -1.303705 0.000000 0.000000 0.000000 -16.549744 -0.513959 -0.972358 -10.907158 0.404912 -0.596690 -10.824236 -0.069740 -0.479635 0.000000 0.000000 0.000000 -18.697744 7.539044 -0.770016 -12.426376 -0.864147 0.856128 -12.402997 0.088371 0.665608 0.000000 0.000000 0.000000 -19.930618 15.963717 -1.155958 -13.003538 -1.534179 2.664460 -12.854547 0.356195 2.263528 0.000000 0.000000 0.000000 0.000000 0.000000 0.000000 0.000000 0.000000 0.000000 0.125331 -9.165424 11.031881 -0.048456 -0.636428 6.191463 -2.890908 -9.077170 17.685108 -0.794671 0.744581 -19.049753 0.000000 0.000000 0.000000 0.000000 0.000000 0.000000 0.000000 0.000000 0.000000 -1.561745 -6.298512 7.165792 0.057071 0.364208 8.524600 3.764082 -0.575876 16.995262 0.387590 -0.472801 -20.519999 0.000000 0.000000 0.000000 0.000000 0.000000 0.000000 0.000000 0.000000 0.000000 
0.122838 88.885941 2.893615 -0.272944 -0.342940 -7.383492 1.290942 -0.174675 6.679391 -0.929556 0.114121 2.665882 0.766419 -1.598806 1.630976 -0.879347 -0.156601 3.081702 1.269942 2.218013 3.092824 0.313252 2.863326 -3.802239 -1.039003 -0.587216 -18.378281 0.000000 0.000000 0.000000 92.928146 -0.455696 9.541435 65.072823 -32.380322 4.006021 -0.078989 13.009876 23.146116 6.631155 12.973451 -6.803205 19.870878 30.094803 62.070309 -8.434428 -12.081697 -20.441235 -6.298086 -8.092989 -14.276721 0.000000 0.000000 0.000000 12.027888 -10.745060 -0.379981 9.002537 0.325099 1.339295 8.804891 -0.113221 1.270151 0.000000 0.000000 0.000000 10.886043 -5.350562 -1.140618 7.678068 0.416745 0.521675 8.055120 -0.056241 0.447533 0.000000 0.000000 0.000000 10.354704 2.558243 -0.837134 7.546297 -0.881018 -0.857239 7.572764 0.070571 -0.628839 0.000000 0.000000 0.000000 9.605570 11.023957 -1.707636 7.179294 -1.631654 -2.454508 6.779219 0.288507 -2.059206 0.000000 0.000000 0.000000 0.000000 0.000000 0.000000 0.000000 0.000000 0.000000 -89.860733 0.119082 6.059767 -71.807114 19.833151 -6.563753 -1.219281 -9.000094 40.558479 2.232428 -23.047560 -16.087379 -20.234713 -29.977289 61.624592 8.852095 12.928788 -21.641123 6.630632 8.649875 -15.127833 0.000000 0.000000 0.000000 -17.087515 -5.545505 -0.325341 -11.091064 0.284877 -1.406231 -11.190114 -0.174462 -1.298902 0.000000 0.000000 0.000000 -16.460636 -0.541541 -1.051686 -10.983603 0.404143 -0.597151 -10.898285 -0.070440 -0.481034 0.000000 0.000000 0.000000 -18.652008 7.529908 -0.856264 -12.515285 -0.863248 0.857885 -12.470450 0.088458 0.667102 0.000000 0.000000 0.000000 -19.894608 15.965660 -1.242435 -13.051996 -1.534643 2.648490 -12.882028 0.352939 2.261749 0.000000 0.000000 0.000000 0.000000 0.000000 0.000000 0.000000 0.000000 0.000000 0.106599 -9.109329 11.121289 -0.048654 -0.638322 6.124772 -2.835302 -9.075930 17.701441 -0.800058 0.742353 -19.044058 0.000000 0.000000 0.000000 0.000000 0.000000 0.000000 0.000000 0.000000 0.000000 -1.552899 -6.222358 7.152638 0.056036 0.354816 8.589708 3.773249 -0.538910 17.003304 0.372265 -0.476798 -20.541262 0.000000 0.000000 0.000000 0.000000 0.000000 0.000000 0.000000 0.000000 0.000000 
0.127427 88.874268 2.893351 -0.282350 -0.388278 -7.455222 1.285868 -0.163969 6.685800 -0.906176 0.113530 2.652823 0.779714 -1.593039 1.681359 -0.870133 -0.135420 3.127452 1.200789 2.190907 3.041315 0.325959 2.828466 -3.785056 -1.042854 -0.609349 -18.348816 0.000000 0.000000 0.000000 92.832047 -0.460274 9.506719 65.168533 -32.360592 3.930541 -0.074135 12.995205 23.251753 6.586905 12.684752 -6.786605 19.871111 30.095404 62.066643 -8.437147 -12.092055 -20.454411 -6.301167 -8.093120 -14.284178 0.000000 0.000000 0.000000 12.030143 -10.758040 -0.384928 9.069820 0.326446 1.330409 8.879344 -0.111233 1.259324 0.000000 0.000000 0.000000 10.901295 -5.352812 -1.129628 7.745959 0.416684 0.516978 8.119778 -0.055483 0.443360 0.000000 0.000000 0.000000 10.373775 2.559135 -0.800909 7.626513 -0.880395 -0.854209 7.645866 0.069901 -0.625245 0.000000 0.000000 0.000000 9.592875 11.030663 -1.612677 7.209564 -1.629851 -2.461958 6.820106 0.289948 -2.062523 0.000000 0.000000 0.000000 0.000000 0.000000 0.000000 0.000000 0.000000 0.000000 -89.816727 0.122535 6.068461 -71.957245 19.880281 -6.608489 -1.183006 -8.992691 40.571808 2.310437 -22.884563 -15.962910 -20.235937 -29.980434 61.627415 8.845945 12.918485 -21.637724 6.626325 8.645467 -15.120621 0.000000 0.000000 0.000000 -17.043385 -5.578352 -0.318003 -11.131236 0.284991 -1.397790 -11.212242 -0.173189 -1.293100 0.000000 0.000000 0.000000 -16.420410 -0.559517 -1.037540 -11.029035 0.403632 -0.595023 -10.950656 -0.070946 -0.479461 0.000000 0.000000 0.000000 -18.670021 7.528529 -0.830492 -12.573259 -0.863029 0.862585 -12.526805 0.088394 0.669264 0.000000 0.000000 0.000000 -19.944616 15.968515 -1.235819 -13.106112 -1.532005 2.662604 -12.912481 0.357629 2.279624 0.000000 0.000000 0.000000 0.000000 0.000000 0.000000 0.000000 0.000000 0.000000 0.094289 -9.055460 11.215861 -0.048564 -0.636084 6.102523 -2.794720 -9.080625 17.723497 -0.805390 0.742263 -19.043619 0.000000 0.000000 0.000000 0.000000 0.000000 0.000000 0.000000 0.000000 0.000000 -1.545568 -6.174534 7.143698 0.055422 0.351258 8.682997 3.789427 -0.515255 16.992996 0.364133 -0.479933 -20.547207 0.000000 0.000000 0.000000 0.000000 0.000000 0.000000 0.000000 0.000000 0.000000 
0.133098 88.864792 2.898530 -0.297182 -0.433767 -7.527214 1.291174 -0.155632 6.685153 -0.890785 0.114236 2.636502 0.786268 -1.578686 1.731003 -0.862849 -0.116403 3.166714 1.116484 2.198882 3.042937 0.344567 2.818368 -3.746864 -1.041265 -0.625714 -18.347141 0.000000 0.000000 0.000000 92.761017 -0.458934 9.501786 65.331039 -32.255062 3.797477 -0.079016 13.041866 23.345701 6.572896 12.445109 -6.729105 19.884430 30.092972 62.051952 -8.448069 -12.127246 -20.499786 -6.312688 -8.111889 -14.313851 0.000000 0.000000 0.000000 12.111917 -10.787296 -0.358590 9.165243 0.332713 1.311512 8.978960 -0.104264 1.241309 0.000000 0.000000 0.000000 10.991560 -5.371678 -1.089242 7.840993 0.419603 0.507901 8.209722 -0.052550 0.435677 0.000000 0.000000 0.000000 10.468470 2.548751 -0.729549 7.724099 -0.884612 -0.843108 7.735857 0.066253 -0.615787 0.000000 0.000000 0.000000 9.641251 11.033868 -1.486316 7.264597 -1.641459 -2.440351 6.881373 0.280930 -2.043424 0.000000 0.000000 0.000000 0.000000 0.000000 0.000000 0.000000 0.000000 0.000000 -89.783707 0.115343 6.077334 -72.048759 19.886328 -6.614737 -1.156693 -8.999613 40.609207 2.269074 -22.839264 -15.807506 -20.231966 -29.981977 61.631226 8.845920 12.899095 -21.626438 6.622737 8.633985 -15.109322 0.000000 0.000000 0.000000 -17.002832 -5.601894 -0.276389 -11.121096 0.292692 -1.369346 -11.188983 -0.164593 -1.268884 0.000000 0.000000 0.000000 -16.385498 -0.571793 -0.990498 -11.019796 0.406565 -0.583673 -10.953438 -0.068545 -0.470130 0.000000 0.000000 0.000000 -18.680840 7.521552 -0.764666 -12.584190 -0.867687 0.853786 -12.532138 0.084562 0.661585 0.000000 0.000000 0.000000 -19.998688 15.959657 -1.190854 -13.124786 -1.543482 2.637285 -12.910003 0.349707 2.263747 0.000000 0.000000 0.000000 0.000000 0.000000 0.000000 0.000000 0.000000 0.000000 0.086412 -9.008994 11.304899 -0.048572 -0.633243 6.106370 -2.764240 -9.060288 17.731569 -0.807520 0.740414 -19.035980 0.000000 0.000000 0.000000 0.000000 0.000000 0.000000 0.000000 0.000000 0.000000 -1.539953 -6.149836 7.149991 0.055122 0.348174 8.768541 3.796463 -0.474789 16.980762 0.362066 -0.481929 -20.545990 0.000000 0.000000 0.000000 0.000000 0.000000 0.000000 0.000000 0.000000 0.000000 
